<?xml version="1.0" standalone="no"?>
<!DOCTYPE svg PUBLIC "-//W3C//DTD SVG 20010904//EN"
 "http://www.w3.org/TR/2001/REC-SVG-20010904/DTD/svg10.dtd">
<svg version="1.0" xmlns="http://www.w3.org/2000/svg"
 width="1000.000000pt" height="1000.000000pt" viewBox="0 0 1000.000000 1000.000000"
 preserveAspectRatio="xMidYMid meet">
<metadata>
Created by potrace 1.14, written by Peter Selinger 2001-2017
</metadata>
<g transform="translate(0.000000,1000.000000) scale(0.100000,-0.100000)"
fill="#000000" stroke="none">
<path d="M2549 9486 c-2 -2 -56 -7 -119 -11 -147 -8 -178 -11 -317 -29 -51 -7
-143 -26 -195 -41 -27 -8 -48 -12 -48 -10 0 2 -53 -14 -117 -36 -344 -117
-665 -340 -863 -599 -19 -25 -37 -47 -40 -50 -36 -33 -226 -362 -239 -412 -3
-14 -49 -153 -59 -178 -3 -8 -6 -22 -7 -32 -1 -9 -6 -25 -10 -35 -5 -10 -9
-25 -9 -33 -1 -8 -5 -21 -10 -28 -4 -7 -6 -16 -3 -19 3 -3 2 -15 -3 -28 -5
-13 -11 -43 -15 -66 -3 -24 -8 -51 -10 -59 -7 -28 -21 -161 -33 -330 -9 -139
-9 -4671 1 -4869 4 -85 10 -164 13 -175 2 -12 6 -41 8 -66 2 -25 5 -45 6 -45
1 0 3 -13 5 -30 11 -88 19 -129 41 -220 14 -55 28 -109 33 -120 5 -11 19 -49
31 -85 30 -85 99 -235 146 -313 76 -125 205 -290 289 -371 70 -66 113 -104
155 -136 25 -19 47 -37 50 -40 13 -15 234 -152 250 -156 3 0 43 -19 90 -41 82
-39 262 -102 307 -108 12 -2 26 -6 31 -9 5 -3 24 -8 43 -11 19 -3 50 -10 69
-15 19 -4 58 -11 85 -14 28 -3 61 -8 75 -11 34 -6 124 -14 245 -20 55 -3 110
-7 123 -10 14 -3 22 -1 22 7 0 10 2 10 8 1 6 -10 499 -12 2363 -9 1294 2 2379
6 2409 9 30 3 81 8 113 11 66 6 140 15 177 22 14 2 41 7 60 10 42 6 129 24
150 32 8 2 22 6 30 8 46 8 139 38 172 55 21 11 38 17 38 15 0 -8 190 82 255
121 179 107 347 246 480 397 177 200 353 550 401 796 3 14 9 41 14 60 5 19 12
53 15 75 3 22 8 51 12 65 3 14 7 39 8 55 2 17 7 73 11 125 11 116 12 5057 1
5155 -15 146 -19 173 -39 270 -11 55 -21 105 -22 110 -14 57 -18 72 -22 85 -3
8 -5 15 -4 15 1 0 -15 45 -35 100 -135 376 -376 689 -703 913 -95 65 -302 177
-342 184 -8 2 -18 6 -21 11 -3 4 -14 9 -25 11 -10 3 -39 12 -64 21 -82 30
-290 79 -380 91 -25 3 -56 8 -70 9 -14 2 -59 7 -100 10 -41 4 -95 9 -120 12
-51 6 -4785 15 -4791 9z"/>
</g>
</svg>
